<svg width="361" height="59" viewBox="0 0 361 59" fill="none" xmlns="http://www.w3.org/2000/svg">
<g clip-path="url(#clip0_322_455)">
<path d="M43.6539 14.7923C38.6681 9.79413 32.1158 7.29785 25.5691 7.29785C19.0224 7.29785 12.5993 9.74354 7.63591 14.6349L7.48431 14.7923L7.40571 14.8654L7.3271 14.9441C4.87911 17.4404 3.04312 20.3134 1.82474 23.3775C-1.85286 32.6036 0.0336618 43.5502 7.48431 51.0109C12.4701 56.0035 19.0224 58.4998 25.5691 58.5054C32.1214 58.4998 38.6737 56.0035 43.6539 51.0109C53.6312 41.0258 53.6312 24.7775 43.6539 14.7923ZM37.1971 44.5453C33.9911 47.7556 29.7801 49.358 25.5691 49.358C21.3581 49.358 17.1471 47.75 13.9412 44.5397C10.7352 41.3294 9.12941 37.1183 9.12941 32.9016C9.12941 28.6849 10.7352 24.4682 13.9412 21.2579C17.1471 18.042 21.3581 16.4396 25.5691 16.4396C29.7801 16.4396 33.9911 18.0476 37.1971 21.2523C43.6034 27.6785 43.609 38.1247 37.1971 44.5453Z" fill="#1A2B68"/>
<path d="M96.7574 8.51758H87.0496C86.185 8.51758 85.3652 8.88303 84.7869 9.52396L41.846 57.2851H51.5481C52.4128 57.2851 53.2325 56.9196 53.8108 56.2787L90.1208 15.8996V32.9013H96.2071C97.8859 32.9013 99.2503 31.5351 99.2503 29.8541V8.51758H96.7574Z" fill="#1A2B68"/>
<path d="M146.441 8.51758H137.149C136.285 8.51758 135.465 8.88303 134.886 9.52396L114.477 32.221V8.51758H108.374C106.701 8.51758 105.348 9.8613 105.348 11.5255V57.2907H114.477V33.576L134.886 56.2731C135.465 56.914 136.285 57.2794 137.149 57.2794H146.441L124.516 32.9013L146.441 8.51758Z" fill="#1A2B68"/>
<path d="M78.0549 38.0515C89.4583 42.0546 94.0735 46.6761 98.0712 58.0949C98.2958 58.7414 99.2559 58.584 99.2559 57.8981V39.9125C99.2559 38.2314 97.8915 36.8652 96.2127 36.8652H78.2514C77.5665 36.8652 77.4092 37.821 78.0549 38.0515Z" fill="#1A2B68"/>
<path d="M167.446 0C157.356 0 149.181 8.18601 149.181 18.2892C149.181 28.3924 157.356 36.5784 167.446 36.5784C177.535 36.5784 185.71 28.3924 185.71 18.2892C185.71 8.18601 177.53 0 167.446 0ZM176.895 29.7249C176.895 30.0397 176.654 30.2028 176.413 30.2028C176.205 30.2028 176.036 30.0791 175.963 29.8767C171.966 18.4579 167.272 13.7577 155.868 9.75462C155.582 9.65342 155.52 9.40042 155.548 9.21488C155.582 9.02935 155.722 8.8157 156.02 8.8157H173.981C175.587 8.8157 176.895 10.1257 176.895 11.7337V29.7249Z" fill="#2F52A0"/>
<path d="M201.05 8.15234C204.025 8.15234 206.406 10.4462 206.406 13.5441C206.406 16.642 204.025 18.9358 201.05 18.9358C198.074 18.9358 195.676 16.642 195.676 13.5441C195.676 10.4462 198.029 8.15234 201.05 8.15234ZM201.05 16.7094C202.689 16.7094 204.009 15.4894 204.009 13.5497C204.009 11.61 202.566 10.39 201.05 10.39C199.534 10.39 198.074 11.61 198.074 13.5497C198.074 15.4894 199.472 16.7094 201.05 16.7094Z" fill="#1A2B68"/>
<path d="M215.552 10.4966H210.016V12.1945H212.638C215.092 12.1945 216.271 13.3864 216.271 15.4105C216.271 17.7325 214.721 18.7613 211.942 18.7613H207.714V8.33203H215.558V10.4966H215.552ZM210.016 14.3535V16.6024H212.026C213.29 16.6024 213.874 16.2763 213.874 15.4273C213.874 14.6515 213.385 14.3535 212.116 14.3535H210.016Z" fill="#1A2B68"/>
<path d="M216.546 8.33203H221.128V11.7897H223.048C225.979 11.7897 227.422 12.9367 227.422 15.2474C227.422 17.6762 225.737 18.7613 222.913 18.7613H218.82V10.4966H216.54V8.33203H216.546ZM221.128 13.9487V16.6024H222.975C224.345 16.6024 225.03 16.3044 225.03 15.2474C225.03 14.3535 224.362 13.9487 223.02 13.9487H221.128Z" fill="#1A2B68"/>
<path d="M228.444 8.33203H236.405V10.491H230.751V12.4307H236.035V14.5165H230.751V16.6024H236.54V18.7613H228.444V8.33203Z" fill="#1A2B68"/>
<path d="M237.309 16.6024H238.438C238.825 15.7815 239.521 13.7406 239.521 9.5858V8.33203H247.095V16.6024H248.303V20.5042H246.147V18.7613H239.465V20.5042H237.309V16.6024ZM241.711 11.0757C241.649 13.5664 241.267 15.5623 240.818 16.6024H244.793V10.4966H241.728L241.711 11.0757Z" fill="#1A2B68"/>
<path d="M249.493 18.7669V8.33203H251.8V14.7245L256.848 8.33203H258.768V18.7613H256.461V12.4025L251.385 18.7669H249.493Z" fill="#1A2B68"/>
<path d="M267.583 14.5896H262.957V18.7613H260.649V8.33203H262.957V12.4307H267.583V8.33203H269.891V18.7613H267.583V14.5896Z" fill="#1A2B68"/>
<path d="M271.777 8.33203H279.739V10.491H274.085V12.4307H279.368V14.5165H274.085V16.6024H279.874V18.7613H271.777V8.33203Z" fill="#1A2B68"/>
<path d="M288.386 14.5896H283.759V18.7613H281.452V8.33203H283.759V12.4307H288.386V8.33203H290.693V18.7613H288.386V14.5896Z" fill="#1A2B68"/>
<path d="M299.514 14.5896H294.887V18.7613H292.58V8.33203H294.887V12.4307H299.514V8.33203H301.821V18.7613H299.514V14.5896Z" fill="#1A2B68"/>
<path d="M307.301 8.33203H309.014L313.584 18.7613H311.176L310.328 16.8216H305.965L305.117 18.7613H302.737L307.301 8.33203ZM306.768 14.8763H309.474L308.132 11.7616L306.768 14.8763Z" fill="#1A2B68"/>
<path d="M321.192 15.3205H319.423L316.762 18.7613H314.039L317.105 14.8876C315.617 14.4266 314.786 13.3808 314.786 11.8459C314.786 9.86129 316.229 8.33203 319.148 8.33203H323.511V18.7613H321.203V15.3205H321.192ZM321.192 13.1616V10.4966H319.002C317.677 10.4966 317.172 10.9745 317.172 11.8403C317.172 12.5712 317.857 13.1672 318.913 13.1672H321.192V13.1616Z" fill="#1A2B68"/>
<path d="M199.741 27.5771H201.454L206.024 38.0064H203.616L202.768 36.0668H198.405L197.557 38.0064H195.177L199.741 27.5771ZM199.202 34.1215H201.909L200.567 31.0067L199.202 34.1215Z" fill="#1A2B68"/>
<path d="M206.934 27.5771H211.594C214.317 27.5771 215.193 28.6791 215.193 30.2421C215.193 31.271 214.761 31.9681 214.182 32.4798C215.03 32.8846 215.535 33.6098 215.535 34.9086C215.535 37.1013 213.823 38.0064 211.47 38.0064H206.934V27.5771ZM209.241 29.7417V31.6477H211.397C212.318 31.6477 212.795 31.3047 212.795 30.7706C212.795 30.0847 212.47 29.7417 211.201 29.7417H209.241ZM209.241 33.7335V35.8475H211.235C212.616 35.8475 213.127 35.5326 213.127 34.7736C213.127 34.0146 212.666 33.7335 211.358 33.7335H209.241Z" fill="#1A2B68"/>
<path d="M216.984 38.0121V27.5771H219.292V33.9697L224.339 27.5771H226.259V38.0064H223.952V31.6477L218.876 38.0121H216.984Z" fill="#1A2B68"/>
<path d="M231.739 27.5771H233.452L238.022 38.0064H235.613L234.766 36.0668H230.403L229.555 38.0064H227.175L231.739 27.5771ZM231.206 34.1215H233.912L232.57 31.0067L231.206 34.1215Z" fill="#1A2B68"/>
<path d="M247.64 36.0445C246.702 37.4163 245.052 38.1922 243.204 38.1922C239.959 38.1922 237.876 36.0332 237.876 32.8004C237.876 29.8206 240.032 27.4087 243.261 27.4087C245.164 27.4087 246.73 28.2127 247.472 29.3933L245.911 30.8214C245.288 30.0455 244.271 29.6464 243.423 29.6464C241.565 29.6464 240.268 30.8664 240.268 32.8061C240.268 34.7457 241.593 35.9658 243.395 35.9658C244.558 35.9658 245.551 35.471 246.27 34.5827L247.64 36.0445Z" fill="#1A2B68"/>
<path d="M248.095 27.5771H257.084V29.7361H253.738V38.0064H251.43V29.7417H248.095V27.5771Z" fill="#1A2B68"/>
<path d="M258.022 38.0121V27.5771H262.339C265.882 27.5771 266.758 29.455 266.758 31.1698C266.758 32.8846 265.629 34.7287 262.339 34.7287H260.329V38.0064H258.022V38.0121ZM260.329 29.7473V32.581H262.311C263.754 32.581 264.366 32.0468 264.366 31.1642C264.366 30.3433 263.861 29.7473 262.401 29.7473H260.329Z" fill="#1A2B68"/>
<path d="M272.951 27.4028C275.927 27.4028 278.307 29.6967 278.307 32.7946C278.307 35.8924 275.927 38.1863 272.951 38.1863C269.975 38.1863 267.578 35.8924 267.578 32.7946C267.578 29.6967 269.925 27.4028 272.951 27.4028ZM272.951 35.9543C274.59 35.9543 275.91 34.7343 275.91 32.7946C275.91 30.8549 274.467 29.6349 272.951 29.6349C271.435 29.6349 269.975 30.8549 269.975 32.7946C269.975 34.7343 271.373 35.9543 272.951 35.9543Z" fill="#1A2B68"/>
<path d="M279.61 38.0121V27.5771H281.918V33.9697L286.965 27.5771H288.885V38.0064H286.578V31.6477L281.502 38.0121H279.61Z" fill="#1A2B68"/>
<path d="M289.817 27.5771H298.806V29.7361H295.46V38.0064H293.152V29.7417H289.817V27.5771Z" fill="#1A2B68"/>
<path d="M299.738 27.5771H307.7V29.7361H302.046V31.6758H307.329V33.7616H302.046V35.8475H307.835V38.0064H299.738V27.5771Z" fill="#1A2B68"/>
<path d="M316.206 29.815H312.95L312.888 31.0238C312.574 37.4894 311.237 38.0573 309.137 38.0573C308.958 38.0573 308.739 38.0404 308.542 38.0123V35.8646C310.137 36.0558 310.597 35.3867 310.687 28.7581L310.704 27.583H318.519V38.0123H316.212V29.815H316.206Z" fill="#1A2B68"/>
<path d="M322.719 31.0348H324.684C327.615 31.0348 329.058 32.2268 329.058 34.4925C329.058 36.7583 327.374 38.0064 324.566 38.0064H320.4V27.5771H322.719V31.0348ZM322.719 33.1994V35.8531H324.611C325.981 35.8531 326.666 35.4033 326.666 34.4982C326.666 33.593 325.998 33.1994 324.656 33.1994H322.719Z" fill="#1A2B68"/>
<path d="M337.003 33.8403H332.376V38.0121H330.069V27.5771H332.376V31.6758H337.003V27.5771H339.311V38.0064H337.003V33.8403Z" fill="#1A2B68"/>
<path d="M344.796 27.5771H346.509L351.079 38.0064H348.67L347.822 36.0668H343.46L342.612 38.0064H340.231L344.796 27.5771ZM344.257 34.1215H346.963L345.621 31.0067L344.257 34.1215Z" fill="#1A2B68"/>
<path d="M358.681 34.5715H356.913L354.251 38.0123H351.528L354.594 34.1386C353.106 33.6775 352.275 32.6318 352.275 31.0969C352.275 29.1123 353.718 27.583 356.637 27.583H361V38.0123H358.681V34.5715ZM358.681 32.4069V29.742H356.491C355.166 29.742 354.661 30.2198 354.661 31.0857C354.661 31.8166 355.346 32.4125 356.402 32.4125H358.681V32.4069Z" fill="#1A2B68"/>
<path d="M196.199 46.8276H198.506V50.8982L202.509 46.8276H205.513L200.988 51.4491L205.811 57.2625H202.773L199.247 53.0009L198.501 53.7599V57.2625H196.193V46.8276H196.199Z" fill="#1A2B68"/>
<path d="M210.668 46.6479C213.643 46.6479 216.024 48.9418 216.024 52.0397C216.024 55.1376 213.643 57.4314 210.668 57.4314C207.692 57.4314 205.294 55.1376 205.294 52.0397C205.294 48.9418 207.641 46.6479 210.668 46.6479ZM210.668 55.1994C212.307 55.1994 213.626 53.9794 213.626 52.0397C213.626 50.1 212.183 48.88 210.668 48.88C209.152 48.88 207.692 50.1 207.692 52.0397C207.692 53.9794 209.09 55.1994 210.668 55.1994Z" fill="#1A2B68"/>
<path d="M217.327 57.2569V46.8276H221.644C225.187 46.8276 226.063 48.7055 226.063 50.4203C226.063 52.135 224.934 53.9792 221.644 53.9792H219.634V57.2569H217.327ZM219.634 48.9866V51.8202H221.616C223.059 51.8202 223.671 51.2861 223.671 50.4034C223.671 49.5825 223.166 48.9866 221.706 48.9866H219.634Z" fill="#1A2B68"/>
<path d="M234.098 48.9866H229.482V57.2569H227.175V46.8276H236.4V57.2569H234.092V48.9866H234.098Z" fill="#1A2B68"/>
<path d="M243.092 46.6479C246.068 46.6479 248.449 48.9418 248.449 52.0397C248.449 55.1376 246.068 57.4314 243.092 57.4314C240.116 57.4314 237.719 55.1376 237.719 52.0397C237.725 49.0318 240.071 46.6479 243.092 46.6479ZM243.092 55.1994C244.732 55.1994 246.051 53.9794 246.051 52.0397C246.051 50.1 244.608 48.88 243.092 48.88C241.576 48.88 240.116 50.1 240.116 52.0397C240.116 53.9794 241.514 55.1994 243.092 55.1994Z" fill="#1A2B68"/>
<path d="M249.757 57.2569V46.8276H254.074C257.617 46.8276 258.493 48.7055 258.493 50.4203C258.493 52.135 257.365 53.9792 254.074 53.9792H252.064V57.2569H249.757ZM252.059 48.9866V51.8202H254.041C255.484 51.8202 256.096 51.2861 256.096 50.4034C256.096 49.5825 255.59 48.9866 254.131 48.9866H252.059Z" fill="#1A2B68"/>
<path d="M262.379 46.8276H264.091L268.661 57.2569H266.253L265.405 55.3172H261.042L260.194 57.2569H257.814L262.379 46.8276ZM261.845 53.3663H264.551L263.21 50.2516L261.845 53.3663Z" fill="#1A2B68"/>
<path d="M269.577 46.8276H271.884V55.098H276.095V46.8276H278.403V55.098H279.61V58.9998H277.465V57.2569H269.577V46.8276Z" fill="#1A2B68"/>
<path d="M280.795 57.2569V46.8276H283.102V53.2201L288.15 46.8276H290.07V57.2569H287.762V50.8925L282.687 57.2569H280.795Z" fill="#1A2B68"/>
<path d="M298.166 53.8161H296.398L293.736 57.2569H291.013L294.079 53.3832C292.591 52.9222 291.76 51.8764 291.76 50.3415C291.76 48.3569 293.203 46.8276 296.123 46.8276H300.485V57.2569H298.178V53.8161H298.166ZM298.166 51.6515V48.9866H295.977C294.652 48.9866 294.146 49.4645 294.146 50.3303C294.146 51.0612 294.831 51.6572 295.887 51.6572H298.166V51.6515Z" fill="#1A2B68"/>
</g>
<defs>
<clipPath id="clip0_322_455">
<rect width="361" height="59" fill="white"/>
</clipPath>
</defs>
</svg>
