<svg width="45" height="46" viewBox="0 0 45 46" fill="none" xmlns="http://www.w3.org/2000/svg">
<path d="M41.2501 32.4299V38.1799C41.2522 38.7137 41.1452 39.242 40.936 39.7311C40.7268 40.2202 40.42 40.6592 40.0352 41.0201C39.6504 41.381 39.1961 41.6557 38.7015 41.8267C38.2068 41.9977 37.6826 42.0612 37.1626 42.0132C31.3929 41.3723 25.8507 39.357 20.9813 36.129C16.451 33.1863 12.6101 29.26 9.73131 24.629C6.56252 19.6288 4.59051 13.9359 3.97506 8.01153C3.9282 7.48151 3.98982 6.94732 4.156 6.44297C4.32217 5.93863 4.58925 5.47518 4.94024 5.08213C5.29123 4.68909 5.71844 4.37505 6.19467 4.16003C6.67089 3.945 7.1857 3.83369 7.70631 3.83319H13.3313C14.2413 3.82404 15.1234 4.15343 15.8134 4.75996C16.5033 5.3665 16.954 6.2088 17.0813 7.12986C17.3187 8.96999 17.759 10.7768 18.3938 12.5157C18.6461 13.2017 18.7007 13.9473 18.5511 14.664C18.4016 15.3808 18.0542 16.0387 17.5501 16.5599L15.1688 18.994C17.838 23.7925 21.7247 27.7655 26.4188 30.494L28.8001 28.0599C29.3098 27.5445 29.9535 27.1894 30.6547 27.0365C31.3558 26.8837 32.0852 26.9395 32.7563 27.1974C34.4574 27.8462 36.2249 28.2963 38.0251 28.539C38.9359 28.6704 39.7677 29.1393 40.3623 29.8567C40.9569 30.5741 41.2729 31.4899 41.2501 32.4299Z" stroke="url(#paint0_linear_322_681)" stroke-width="3" stroke-linecap="round" stroke-linejoin="round"/>
<defs>
<linearGradient id="paint0_linear_322_681" x1="-12.7283" y1="23.1268" x2="23.6479" y2="58.6417" gradientUnits="userSpaceOnUse">
<stop stop-color="#3A42E1"/>
<stop offset="1" stop-color="#620C90"/>
</linearGradient>
</defs>
</svg>
