<svg width="245" height="73" viewBox="0 0 245 73" fill="none" xmlns="http://www.w3.org/2000/svg">
<path d="M72.2586 72.8929V63.5742H76.0227C79.1622 63.5742 79.8937 65.1574 79.8937 66.6335C79.8937 68.1096 78.9091 69.6984 76.0114 69.6984H73.8734V72.8929H72.2642H72.2586ZM73.8678 65.0785V68.1941H75.9833C77.5531 68.1941 78.217 67.58 78.217 66.6222C78.217 65.7321 77.66 65.0785 76.0733 65.0785H73.8678Z" fill="#A50430"/>
<path d="M85.4976 63.4673C88.142 63.4673 90.2576 65.4674 90.2576 68.2337C90.2576 71 88.142 73.0001 85.4976 73.0001C82.8532 73.0001 80.7376 71.0056 80.7376 68.2337C80.7376 65.4617 82.8251 63.4673 85.4976 63.4673ZM85.4976 71.4563C87.2249 71.4563 88.5809 70.1661 88.5809 68.2337C88.5809 66.3012 87.118 65.011 85.4976 65.011C83.8772 65.011 82.4143 66.2899 82.4143 68.2337C82.4143 70.1774 83.8491 71.4563 85.4976 71.4563Z" fill="#A50430"/>
<path d="M99.8281 71.2704C99.0573 72.3634 97.6338 73.0001 96.0528 73.0001C93.1271 73.0001 91.2647 71.1239 91.2647 68.2337C91.2647 65.5688 93.1383 63.4673 96.0247 63.4673C97.7126 63.4673 99.0404 64.149 99.6819 65.0786L98.6185 66.0871C97.9827 65.3829 97.1162 65.011 96.1034 65.011C94.1905 65.011 92.9358 66.2899 92.9358 68.2337C92.9358 70.1774 94.2636 71.4563 96.1653 71.4563C97.3356 71.4563 98.2415 70.9887 98.8773 70.2337L99.8225 71.2704H99.8281Z" fill="#A50430"/>
<path d="M100.171 63.5742H108.032V65.0898H104.909V72.8929H103.3V65.0898H100.177V63.5742H100.171Z" fill="#A50430"/>
<path d="M109.106 63.5742H116.021V65.0898H110.715V67.4335H115.672V68.8984H110.715V71.3717H116.15V72.8929H109.101V63.5742H109.106Z" fill="#A50430"/>
<path d="M122.385 68.1659L125.867 72.8929H123.898L121.411 69.473L118.924 72.8929H116.972L120.455 68.1659L117.118 63.5742H119.048L121.428 66.8363L123.808 63.5742H125.749L122.385 68.1659Z" fill="#A50430"/>
<path d="M40.7899 2.63086L34.4714 17.2962L55.8857 18.547C53.1006 11.4875 47.6598 5.76901 40.7899 2.63649V2.63086Z" fill="#A50430"/>
<path d="M33.7681 0.445088C32.1083 0.152119 30.3979 0 28.6537 0C15.139 0 3.7623 9.18345 0.40332 21.6628L32.4571 17.2119L33.7681 0.445088Z" fill="#A50430"/>
<path d="M33.4305 19.0315L2.76642 42.9592C7.66705 52.261 17.4233 58.5992 28.6593 58.5992C44.8184 58.5992 57.9224 45.4776 57.9224 29.2967C57.9224 28.891 57.9112 28.491 57.8943 28.091L33.4305 19.0259V19.0315Z" fill="#A50430"/>
<path d="M85.8577 14.4064C87.2587 13.5838 87.7763 12.4232 87.7763 11.1105V8.00053C87.7763 5.43705 86.0096 3.66797 83.4496 3.66797H72.3542V25.6406H83.6915C86.2516 25.6406 88.0183 23.8716 88.0183 21.3081V17.7079C88.0183 16.3952 87.3768 15.1445 85.8521 14.412L85.8577 14.4064ZM76.7429 7.75263H82.3524C83.022 7.75263 83.3877 8.11884 83.3877 8.78929V11.4147C83.3877 12.2711 83.1458 12.4514 82.3524 12.4514H76.7429V7.75263ZM83.6353 20.5081C83.6353 21.1785 83.2695 21.5447 82.6 21.5447H76.7485V16.3558H82.2343C83.0895 16.3558 83.6353 16.4178 83.6353 17.3305V20.5024V20.5081Z" fill="#A50430"/>
<path d="M106.484 21.4881H96.5198V16.4795H104.599V12.3329H96.5198V7.81438H106.484V3.66211H92.1312V25.6348H106.484V21.4881Z" fill="#A50430"/>
<path d="M114.744 17.8882H121.569C124.129 17.8882 125.895 16.1192 125.895 13.5557V8.00053C125.895 5.43705 124.129 3.66797 121.569 3.66797H110.355V25.6406H114.744V17.8882ZM114.744 7.81461H120.472C121.141 7.81461 121.507 8.18082 121.507 8.85127V12.6993C121.507 13.3698 121.141 13.736 120.472 13.736H114.744V7.81461Z" fill="#A50430"/>
<path d="M133.514 25.6348H137.902V7.75241H143.63V3.66211H127.786V7.75241H133.514V25.6348Z" fill="#A50430"/>
<path d="M157.769 25.7589C160.329 25.7589 162.096 23.9898 162.096 21.4263V7.87651C162.096 5.31303 160.329 3.54395 157.769 3.54395H150.427C147.867 3.54395 146.1 5.31303 146.1 7.87651V21.4263C146.1 23.9898 147.867 25.7589 150.427 25.7589H157.769ZM150.483 8.73288C150.483 8.06243 150.849 7.69622 151.518 7.69622H156.666C157.336 7.69622 157.702 8.06243 157.702 8.73288V20.5756C157.702 21.246 157.336 21.6122 156.666 21.6122H151.518C150.849 21.6122 150.483 21.246 150.483 20.5756V8.73288Z" fill="#A50430"/>
<path d="M186.503 25.6348H200.856V21.4881H190.892V16.4795H198.972V12.3329H190.892V7.81438H200.856V3.66211H186.503V25.6348Z" fill="#A50430"/>
<path d="M203.642 7.75241H209.369V25.6348H213.758V7.75241H219.491V3.66211H203.642V7.75241Z" fill="#A50430"/>
<path d="M171.695 19.4263C171.925 16.5924 172.51 9.29635 172.634 7.75827H178.379V25.6406H182.767V3.66797H168.594L168.24 7.75827C168.111 9.17241 167.542 15.3755 167.447 16.8572C167.312 18.2206 167.075 19.8658 166.929 20.8236C166.856 21.3081 166.524 21.6236 166.063 21.6236H164.504V25.5899C164.504 25.5899 164.69 25.5899 165.843 25.5899C170.254 25.5899 171.413 22.5081 171.689 19.4207L171.695 19.4263Z" fill="#A50430"/>
<path d="M83.5734 32.9702H72.3599V54.9429H76.7485V47.1905H83.5734C86.1334 47.1905 87.9001 45.4214 87.9001 42.8579V37.3028C87.9001 34.7393 86.1334 32.9702 83.5734 32.9702ZM83.5115 42.0016C83.5115 42.672 83.1457 43.0382 82.4762 43.0382H76.7485V37.1169H82.4762C83.1457 37.1169 83.5115 37.4831 83.5115 38.1535V42.0016Z" fill="#A50430"/>
<path d="M102.585 32.8462H95.2426C92.6826 32.8462 90.9159 34.6153 90.9159 37.1788V50.7286C90.9159 53.2921 92.6826 55.0611 95.2426 55.0611H102.585C105.145 55.0611 106.912 53.2921 106.912 50.7286V37.1788C106.912 34.6153 105.145 32.8462 102.585 32.8462ZM102.523 49.8778C102.523 50.5483 102.157 50.9145 101.488 50.9145H96.3397C95.6702 50.9145 95.3045 50.5483 95.3045 49.8778V38.0351C95.3045 37.3647 95.6702 36.9985 96.3397 36.9985H101.488C102.157 36.9985 102.523 37.3647 102.523 38.0351V49.8778Z" fill="#A50430"/>
<path d="M121.951 32.8462H115.003C112.443 32.8462 110.676 34.6153 110.676 37.1788V50.7286C110.676 53.2921 112.443 55.0611 115.003 55.0611H121.951C124.511 55.0611 126.278 53.2921 126.278 50.7286V47.1904H121.889V49.8778C121.889 50.5483 121.524 50.9145 120.854 50.9145H116.1C115.43 50.9145 115.065 50.5483 115.065 49.8778V38.0351C115.065 37.3647 115.43 36.9985 116.1 36.9985H120.854C121.524 36.9985 121.889 37.3647 121.889 38.0351V40.7226H126.278V37.1788C126.278 34.6153 124.511 32.8462 121.951 32.8462Z" fill="#A50430"/>
<path d="M141.233 32.8462H134.284C131.724 32.8462 129.958 34.6153 129.958 37.1788V50.7286C129.958 53.2921 131.724 55.0611 134.284 55.0611H141.233C143.793 55.0611 145.56 53.2921 145.56 50.7286V47.1904H141.171V49.8778C141.171 50.5483 140.805 50.9145 140.136 50.9145H135.382C134.712 50.9145 134.346 50.5483 134.346 49.8778V38.0351C134.346 37.3647 134.712 36.9985 135.382 36.9985H140.136C140.805 36.9985 141.171 37.3647 141.171 38.0351V40.7226H145.56V37.1788C145.56 34.6153 143.793 32.8462 141.233 32.8462Z" fill="#A50430"/>
<path d="M233.175 11.5159H226.485V3.66211H222.096V25.6348H233.175C235.735 25.6348 237.501 23.8657 237.501 21.3022V15.8485C237.501 13.285 235.735 11.5159 233.175 11.5159ZM233.113 20.4515C233.113 21.1219 232.747 21.4881 232.078 21.4881H226.485V15.6682H232.078C232.747 15.6682 233.113 16.0344 233.113 16.7049V20.4459V20.4515Z" fill="#A50430"/>
<path d="M244.743 3.66211H240.298V25.6066H244.743V3.66211Z" fill="#A50430"/>
<path d="M182.514 32.9648L174.114 47.4386V32.9648H169.911V54.915H169.922H174.114L182.514 40.475V54.915H186.751V32.9648H186.734H182.514Z" fill="#A50430"/>
<path d="M162.057 32.9648L153.662 47.4386V32.9648H149.453V54.915H149.465H153.662L162.057 40.475V54.915H166.293V32.9648H166.276H162.057Z" fill="#A50430"/>
</svg>
